<mxfile host="app.diagrams.net" modified="2021-01-17T17:41:15.364Z" agent="5.0 (Windows NT 10.0; Win64; x64) AppleWebKit/537.36 (KHTML, like Gecko) Chrome/87.0.4280.141 Safari/537.36" etag="22FJof5S95218z9uc334" version="14.2.4" type="github">
  <diagram id="VkIA_7DUmakhEG3LKuWH" name="Page-1">
    <mxGraphModel dx="782" dy="469" grid="1" gridSize="10" guides="1" tooltips="1" connect="1" arrows="1" fold="1" page="1" pageScale="1" pageWidth="827" pageHeight="1169" math="0" shadow="0">
      <root>
        <mxCell id="0" />
        <mxCell id="1" parent="0" />
        <mxCell id="OLDSI2XkLb0DmbLjyY9J-8" style="edgeStyle=orthogonalEdgeStyle;rounded=0;orthogonalLoop=1;jettySize=auto;html=1;exitX=1;exitY=0.5;exitDx=0;exitDy=0;entryX=-0.006;entryY=0.145;entryDx=0;entryDy=0;entryPerimeter=0;" edge="1" parent="1" source="OLDSI2XkLb0DmbLjyY9J-1" target="OLDSI2XkLb0DmbLjyY9J-6">
          <mxGeometry relative="1" as="geometry" />
        </mxCell>
        <mxCell id="OLDSI2XkLb0DmbLjyY9J-1" value="Web App" style="rounded=0;whiteSpace=wrap;html=1;" vertex="1" parent="1">
          <mxGeometry x="120" y="40" width="120" height="120" as="geometry" />
        </mxCell>
        <mxCell id="OLDSI2XkLb0DmbLjyY9J-9" style="edgeStyle=orthogonalEdgeStyle;rounded=0;orthogonalLoop=1;jettySize=auto;html=1;entryX=0;entryY=0.5;entryDx=0;entryDy=0;" edge="1" parent="1" source="OLDSI2XkLb0DmbLjyY9J-3" target="OLDSI2XkLb0DmbLjyY9J-6">
          <mxGeometry relative="1" as="geometry" />
        </mxCell>
        <mxCell id="OLDSI2XkLb0DmbLjyY9J-3" value="Mobile App" style="rounded=0;whiteSpace=wrap;html=1;" vertex="1" parent="1">
          <mxGeometry x="120" y="200" width="120" height="120" as="geometry" />
        </mxCell>
        <mxCell id="OLDSI2XkLb0DmbLjyY9J-10" style="edgeStyle=orthogonalEdgeStyle;rounded=0;orthogonalLoop=1;jettySize=auto;html=1;entryX=0;entryY=0.75;entryDx=0;entryDy=0;" edge="1" parent="1" source="OLDSI2XkLb0DmbLjyY9J-4" target="OLDSI2XkLb0DmbLjyY9J-6">
          <mxGeometry relative="1" as="geometry" />
        </mxCell>
        <mxCell id="OLDSI2XkLb0DmbLjyY9J-4" value="Delivery Boy App" style="rounded=0;whiteSpace=wrap;html=1;" vertex="1" parent="1">
          <mxGeometry x="120" y="340" width="120" height="120" as="geometry" />
        </mxCell>
        <mxCell id="OLDSI2XkLb0DmbLjyY9J-11" style="edgeStyle=orthogonalEdgeStyle;rounded=0;orthogonalLoop=1;jettySize=auto;html=1;entryX=0.5;entryY=1;entryDx=0;entryDy=0;" edge="1" parent="1" source="OLDSI2XkLb0DmbLjyY9J-5" target="OLDSI2XkLb0DmbLjyY9J-6">
          <mxGeometry relative="1" as="geometry" />
        </mxCell>
        <mxCell id="OLDSI2XkLb0DmbLjyY9J-5" value="OMS Agent" style="rounded=0;whiteSpace=wrap;html=1;" vertex="1" parent="1">
          <mxGeometry x="300" y="380" width="120" height="60" as="geometry" />
        </mxCell>
        <mxCell id="OLDSI2XkLb0DmbLjyY9J-17" style="edgeStyle=orthogonalEdgeStyle;rounded=0;orthogonalLoop=1;jettySize=auto;html=1;entryX=0.061;entryY=1.006;entryDx=0;entryDy=0;entryPerimeter=0;" edge="1" parent="1" source="OLDSI2XkLb0DmbLjyY9J-6" target="OLDSI2XkLb0DmbLjyY9J-14">
          <mxGeometry relative="1" as="geometry" />
        </mxCell>
        <mxCell id="OLDSI2XkLb0DmbLjyY9J-25" style="edgeStyle=orthogonalEdgeStyle;rounded=0;orthogonalLoop=1;jettySize=auto;html=1;exitX=1;exitY=0.75;exitDx=0;exitDy=0;entryX=0;entryY=0.75;entryDx=0;entryDy=0;" edge="1" parent="1" source="OLDSI2XkLb0DmbLjyY9J-6" target="OLDSI2XkLb0DmbLjyY9J-24">
          <mxGeometry relative="1" as="geometry" />
        </mxCell>
        <mxCell id="OLDSI2XkLb0DmbLjyY9J-6" value="API Gateway" style="rounded=0;whiteSpace=wrap;html=1;" vertex="1" parent="1">
          <mxGeometry x="300" y="205" width="120" height="110" as="geometry" />
        </mxCell>
        <mxCell id="OLDSI2XkLb0DmbLjyY9J-12" value="HTTP REST API Call" style="text;html=1;align=center;verticalAlign=middle;resizable=0;points=[];autosize=1;" vertex="1" parent="1">
          <mxGeometry x="284" y="340" width="130" height="20" as="geometry" />
        </mxCell>
        <mxCell id="OLDSI2XkLb0DmbLjyY9J-13" value="IAM/ User Management /Entry" style="rounded=0;whiteSpace=wrap;html=1;" vertex="1" parent="1">
          <mxGeometry x="10" y="130" width="90" height="190" as="geometry" />
        </mxCell>
        <mxCell id="OLDSI2XkLb0DmbLjyY9J-22" style="edgeStyle=orthogonalEdgeStyle;rounded=0;orthogonalLoop=1;jettySize=auto;html=1;" edge="1" parent="1" source="OLDSI2XkLb0DmbLjyY9J-14" target="OLDSI2XkLb0DmbLjyY9J-18">
          <mxGeometry relative="1" as="geometry" />
        </mxCell>
        <mxCell id="OLDSI2XkLb0DmbLjyY9J-14" value="OMS" style="rounded=0;whiteSpace=wrap;html=1;" vertex="1" parent="1">
          <mxGeometry x="470" y="40" width="120" height="120" as="geometry" />
        </mxCell>
        <mxCell id="OLDSI2XkLb0DmbLjyY9J-23" style="edgeStyle=orthogonalEdgeStyle;rounded=0;orthogonalLoop=1;jettySize=auto;html=1;entryX=0.597;entryY=-0.006;entryDx=0;entryDy=0;entryPerimeter=0;" edge="1" parent="1" source="OLDSI2XkLb0DmbLjyY9J-15" target="OLDSI2XkLb0DmbLjyY9J-18">
          <mxGeometry relative="1" as="geometry" />
        </mxCell>
        <mxCell id="OLDSI2XkLb0DmbLjyY9J-15" value="Fulfillment" style="rounded=0;whiteSpace=wrap;html=1;" vertex="1" parent="1">
          <mxGeometry x="640" y="40" width="120" height="120" as="geometry" />
        </mxCell>
        <mxCell id="OLDSI2XkLb0DmbLjyY9J-18" value="Messaging System" style="rounded=1;whiteSpace=wrap;html=1;" vertex="1" parent="1">
          <mxGeometry x="510" y="225" width="260" height="60" as="geometry" />
        </mxCell>
        <mxCell id="OLDSI2XkLb0DmbLjyY9J-24" value="Listing/Catalog" style="rounded=0;whiteSpace=wrap;html=1;" vertex="1" parent="1">
          <mxGeometry x="530" y="330" width="190" height="100" as="geometry" />
        </mxCell>
      </root>
    </mxGraphModel>
  </diagram>
</mxfile>
